<svg xmlns="http://www.w3.org/2000/svg" xmlns:xlink="http://www.w3.org/1999/xlink" width="1080" zoomAndPan="magnify" viewBox="0 0 810 809.999993" height="1080" preserveAspectRatio="xMidYMid meet" version="1.2"><defs><clipPath id="12c73ce1a8"><path d="M 39.875 256.542969 L 564.414062 256.542969 L 564.414062 786 L 39.875 786 Z M 39.875 256.542969 "/></clipPath></defs><g id="906ac03ff4"><path style=" stroke:none;fill-rule:nonzero;fill:#232323;fill-opacity:1;" d="M 319.796875 408.421875 C 315.648438 404.257812 309.3125 403.863281 305.644531 407.542969 L 290.8125 422.453125 C 287.148438 426.132812 287.542969 432.492188 291.691406 436.660156 C 295.839844 440.824219 302.175781 441.21875 305.84375 437.539062 L 313.253906 430.097656 L 320.671875 422.648438 C 324.339844 418.949219 323.945312 412.558594 319.796875 408.421875 Z M 319.796875 408.421875 "/><path style=" stroke:none;fill-rule:nonzero;fill:#232323;fill-opacity:1;" d="M 305.761719 394.292969 C 301.613281 390.128906 295.277344 389.734375 291.613281 393.414062 L 276.832031 408.304688 C 273.164062 411.984375 273.558594 418.34375 277.707031 422.511719 C 281.855469 426.675781 288.191406 427.070312 291.859375 423.390625 L 299.269531 415.953125 L 306.6875 408.5 C 310.265625 404.820312 309.871094 398.460938 305.761719 394.292969 Z M 305.761719 394.292969 "/><path style=" stroke:none;fill-rule:nonzero;fill:#232323;fill-opacity:1;" d="M 517.988281 523.207031 C 517.21875 523.207031 516.472656 523.070312 515.75 522.800781 C 515.34375 522.65625 514.957031 522.472656 514.589844 522.25 C 514.21875 522.027344 513.875 521.769531 513.558594 521.480469 C 513.238281 521.191406 512.949219 520.871094 512.695312 520.523438 C 512.4375 520.175781 512.21875 519.804688 512.035156 519.414062 C 511.851562 519.023438 511.710938 518.617188 511.605469 518.199219 C 511.503906 517.777344 511.441406 517.351562 511.421875 516.921875 C 511.402344 516.488281 511.425781 516.058594 511.492188 515.632812 C 511.554688 515.203125 511.664062 514.789062 511.808594 514.382812 C 522.570312 484.769531 500.40625 462.273438 499.460938 461.324219 C 499.171875 461.015625 498.914062 460.6875 498.6875 460.332031 C 498.457031 459.976562 498.269531 459.601562 498.113281 459.207031 C 497.957031 458.816406 497.839844 458.410156 497.765625 457.996094 C 497.6875 457.582031 497.648438 457.164062 497.652344 456.742188 C 497.65625 456.316406 497.699219 455.898438 497.78125 455.484375 C 497.867188 455.070312 497.988281 454.671875 498.148438 454.28125 C 498.308594 453.890625 498.503906 453.519531 498.738281 453.164062 C 498.96875 452.8125 499.234375 452.488281 499.527344 452.183594 C 499.820312 451.882812 500.144531 451.613281 500.488281 451.375 C 500.835938 451.136719 501.203125 450.929688 501.589844 450.761719 C 501.972656 450.59375 502.371094 450.464844 502.785156 450.375 C 503.195312 450.28125 503.609375 450.230469 504.03125 450.222656 C 504.449219 450.210938 504.867188 450.238281 505.285156 450.308594 C 505.699219 450.378906 506.101562 450.488281 506.496094 450.636719 C 506.890625 450.785156 507.265625 450.972656 507.625 451.191406 C 507.984375 451.414062 508.316406 451.667969 508.625 451.953125 C 509.828125 453.132812 537.796875 481.199219 524.097656 518.882812 C 523.867188 519.511719 523.550781 520.09375 523.144531 520.628906 C 522.738281 521.160156 522.261719 521.617188 521.71875 522.003906 C 521.171875 522.390625 520.582031 522.6875 519.945312 522.890625 C 519.308594 523.097656 518.65625 523.203125 517.988281 523.207031 Z M 517.988281 523.207031 "/><path style=" stroke:none;fill-rule:nonzero;fill:#e9e8e4;fill-opacity:1;" d="M 524.40625 611.371094 L 471.414062 588.65625 C 470.558594 588.289062 469.722656 587.882812 468.910156 587.433594 C 468.09375 586.984375 467.300781 586.496094 466.53125 585.96875 C 465.765625 585.441406 465.023438 584.878906 464.3125 584.277344 C 463.597656 583.675781 462.917969 583.042969 462.265625 582.375 C 461.617188 581.707031 461 581.007812 460.417969 580.28125 C 459.832031 579.550781 459.289062 578.796875 458.78125 578.015625 C 458.269531 577.230469 457.800781 576.425781 457.371094 575.597656 C 456.941406 574.769531 456.554688 573.921875 456.207031 573.054688 C 455.859375 572.1875 455.558594 571.304688 455.296875 570.410156 C 455.035156 569.511719 454.820312 568.605469 454.648438 567.6875 C 454.476562 566.769531 454.351562 565.84375 454.269531 564.914062 C 454.1875 563.984375 454.152344 563.050781 454.164062 562.117188 C 454.171875 561.183594 454.226562 560.25 454.328125 559.324219 C 454.429688 558.394531 454.578125 557.472656 454.769531 556.558594 C 454.960938 555.644531 455.195312 554.742188 455.476562 553.851562 C 455.753906 552.960938 456.078125 552.085938 456.441406 551.226562 L 469.414062 520.726562 C 469.777344 519.867188 470.183594 519.027344 470.632812 518.207031 C 471.078125 517.390625 471.566406 516.59375 472.089844 515.824219 C 472.617188 515.050781 473.179688 514.308594 473.777344 513.59375 C 474.375 512.878906 475.007812 512.195312 475.671875 511.539062 C 476.335938 510.886719 477.03125 510.265625 477.757812 509.683594 C 478.484375 509.097656 479.234375 508.550781 480.015625 508.039062 C 480.792969 507.527344 481.597656 507.058594 482.421875 506.625 C 483.246094 506.195312 484.089844 505.804688 484.953125 505.457031 C 485.816406 505.109375 486.695312 504.804688 487.589844 504.542969 C 488.484375 504.28125 489.386719 504.066406 490.300781 503.890625 C 491.214844 503.71875 492.136719 503.59375 493.0625 503.511719 C 493.988281 503.429688 494.917969 503.394531 495.847656 503.40625 C 496.78125 503.414062 497.707031 503.46875 498.632812 503.570312 C 499.558594 503.671875 500.476562 503.820312 501.386719 504.011719 C 502.296875 504.203125 503.195312 504.441406 504.082031 504.722656 C 504.96875 505.003906 505.839844 505.328125 506.695312 505.695312 L 512.0625 507.992188 C 513.621094 508.660156 515.144531 509.40625 516.632812 510.226562 C 518.121094 511.042969 519.5625 511.933594 520.964844 512.894531 C 522.363281 513.855469 523.710938 514.882812 525.011719 515.976562 C 526.3125 517.074219 527.554688 518.226562 528.742188 519.445312 C 529.925781 520.664062 531.050781 521.933594 532.113281 523.261719 C 533.175781 524.589844 534.167969 525.96875 535.09375 527.394531 C 536.023438 528.820312 536.878906 530.289062 537.660156 531.796875 C 538.445312 533.308594 539.152344 534.851562 539.785156 536.433594 C 540.414062 538.011719 540.96875 539.621094 541.445312 541.253906 C 541.917969 542.890625 542.3125 544.542969 542.625 546.21875 C 542.9375 547.890625 543.167969 549.578125 543.316406 551.273438 C 543.464844 552.96875 543.527344 554.667969 543.511719 556.371094 C 543.492188 558.074219 543.390625 559.769531 543.207031 561.464844 C 543.023438 563.15625 542.753906 564.835938 542.40625 566.503906 C 542.058594 568.167969 541.628906 569.8125 541.117188 571.4375 C 540.609375 573.0625 540.019531 574.65625 539.355469 576.222656 Z M 524.40625 611.371094 "/><path style=" stroke:none;fill-rule:nonzero;fill:#232323;fill-opacity:1;" d="M 524.710938 611.503906 L 475.191406 590.277344 C 475.445312 589.683594 475.726562 589.101562 476.039062 588.53125 C 476.347656 587.964844 476.683594 587.414062 477.050781 586.878906 C 477.414062 586.34375 477.804688 585.828125 478.21875 585.332031 C 478.632812 584.835938 479.070312 584.359375 479.53125 583.90625 C 479.996094 583.453125 480.476562 583.023438 480.980469 582.617188 C 481.484375 582.210938 482.003906 581.832031 482.546875 581.476562 C 483.085938 581.125 483.644531 580.796875 484.214844 580.5 C 484.789062 580.199219 485.375 579.929688 485.972656 579.6875 C 486.570312 579.445312 487.179688 579.234375 487.800781 579.050781 C 488.421875 578.871094 489.046875 578.722656 489.683594 578.601562 C 490.316406 578.480469 490.953125 578.394531 491.597656 578.335938 C 492.242188 578.28125 492.886719 578.253906 493.53125 578.261719 C 494.175781 578.269531 494.820312 578.308594 495.460938 578.378906 C 496.101562 578.449219 496.738281 578.550781 497.371094 578.683594 C 498.003906 578.816406 498.625 578.980469 499.242188 579.175781 C 499.859375 579.371094 500.460938 579.597656 501.054688 579.851562 L 532.449219 593.308594 C 533.046875 593.5625 533.609375 593.875 534.144531 594.242188 C 534.679688 594.605469 535.171875 595.023438 535.625 595.488281 C 536.078125 595.953125 536.480469 596.457031 536.832031 597 C 537.1875 597.542969 537.484375 598.117188 537.726562 598.71875 C 537.964844 599.324219 538.148438 599.941406 538.265625 600.582031 C 538.386719 601.21875 538.441406 601.863281 538.433594 602.511719 C 538.429688 603.164062 538.359375 603.804688 538.226562 604.441406 C 538.089844 605.078125 537.898438 605.695312 537.644531 606.292969 C 537.390625 606.890625 537.082031 607.457031 536.714844 607.992188 C 536.351562 608.527344 535.9375 609.023438 535.472656 609.476562 C 535.011719 609.933594 534.507812 610.335938 533.96875 610.691406 C 533.425781 611.046875 532.855469 611.34375 532.253906 611.585938 C 531.652344 611.828125 531.035156 612.011719 530.398438 612.128906 C 529.761719 612.25 529.121094 612.304688 528.472656 612.300781 C 527.828125 612.292969 527.1875 612.222656 526.554688 612.089844 C 525.921875 611.953125 525.308594 611.761719 524.710938 611.503906 Z M 524.710938 611.503906 "/><path style=" stroke:none;fill-rule:nonzero;fill:#232323;fill-opacity:1;" d="M 355.09375 384.53125 C 354.457031 384.394531 353.855469 384.167969 353.289062 383.851562 C 352.71875 383.535156 352.207031 383.144531 351.757812 382.675781 C 351.304688 382.207031 350.929688 381.683594 350.632812 381.101562 C 350.335938 380.523438 350.128906 379.910156 350.015625 379.269531 C 349.898438 378.625 349.878906 377.980469 349.957031 377.332031 C 350.03125 376.683594 350.199219 376.0625 350.460938 375.464844 C 350.722656 374.867188 351.066406 374.320312 351.488281 373.824219 C 351.910156 373.332031 352.398438 372.90625 352.945312 372.558594 C 363.410156 365.898438 374.558594 361.675781 385.160156 360.320312 C 393.410156 359.269531 398.589844 360.320312 399.152344 360.410156 C 399.574219 360.496094 399.980469 360.625 400.375 360.792969 C 400.769531 360.960938 401.144531 361.167969 401.5 361.410156 C 401.855469 361.652344 402.183594 361.929688 402.484375 362.238281 C 402.785156 362.542969 403.054688 362.878906 403.289062 363.238281 C 403.523438 363.597656 403.722656 363.980469 403.882812 364.378906 C 404.042969 364.777344 404.164062 365.191406 404.242188 365.613281 C 404.324219 366.035156 404.363281 366.464844 404.359375 366.894531 C 404.355469 367.324219 404.308594 367.753906 404.222656 368.175781 C 404.132812 368.597656 404.007812 369.003906 403.839844 369.402344 C 403.671875 369.800781 403.46875 370.175781 403.226562 370.53125 C 402.984375 370.886719 402.710938 371.21875 402.40625 371.519531 C 402.097656 371.824219 401.765625 372.089844 401.40625 372.328125 C 401.050781 372.566406 400.671875 372.765625 400.273438 372.925781 C 399.875 373.085938 399.464844 373.210938 399.042969 373.289062 C 398.621094 373.371094 398.195312 373.410156 397.765625 373.40625 C 397.339844 373.402344 396.914062 373.359375 396.492188 373.269531 C 395.734375 373.132812 380.636719 370.5 359.941406 383.660156 C 359.222656 384.117188 358.441406 384.417969 357.601562 384.570312 C 356.765625 384.71875 355.929688 384.707031 355.09375 384.53125 Z M 355.09375 384.53125 "/><path style=" stroke:none;fill-rule:nonzero;fill:#d6d6d4;fill-opacity:1;" d="M 434.195312 339.015625 C 435.085938 339.605469 435.945312 340.238281 436.773438 340.914062 C 437.601562 341.589844 438.394531 342.304688 439.148438 343.058594 C 439.90625 343.8125 440.625 344.601562 441.308594 345.425781 C 441.988281 346.253906 442.625 347.109375 443.222656 347.996094 C 443.820312 348.882812 444.371094 349.800781 444.878906 350.742188 C 445.382812 351.683594 445.84375 352.648438 446.257812 353.636719 C 446.667969 354.625 447.03125 355.628906 447.347656 356.652344 C 447.660156 357.675781 447.921875 358.710938 448.136719 359.761719 C 448.347656 360.8125 448.511719 361.867188 448.617188 362.933594 C 448.726562 364 448.785156 365.066406 448.789062 366.136719 C 448.792969 367.207031 448.746094 368.277344 448.648438 369.34375 C 448.546875 370.410156 448.394531 371.46875 448.191406 372.519531 C 447.988281 373.570312 447.734375 374.609375 447.429688 375.636719 C 447.125 376.660156 446.769531 377.671875 446.363281 378.660156 C 445.960938 379.652344 445.511719 380.621094 445.011719 381.570312 C 444.511719 382.515625 443.96875 383.433594 443.378906 384.328125 C 442.792969 385.222656 442.160156 386.082031 441.488281 386.914062 C 440.8125 387.746094 440.101562 388.539062 439.351562 389.300781 C 438.601562 390.0625 437.8125 390.78125 436.992188 391.464844 C 436.171875 392.148438 435.316406 392.789062 434.433594 393.386719 C 433.550781 393.988281 432.636719 394.542969 431.699219 395.050781 C 430.761719 395.558594 429.800781 396.019531 428.816406 396.433594 C 427.832031 396.847656 426.832031 397.214844 425.8125 397.527344 C 424.792969 397.84375 423.757812 398.109375 422.714844 398.324219 C 421.667969 398.535156 420.617188 398.699219 419.554688 398.808594 C 418.492188 398.917969 417.429688 398.972656 416.363281 398.976562 C 415.296875 398.984375 414.230469 398.933594 413.171875 398.835938 C 412.109375 398.734375 411.054688 398.582031 410.007812 398.378906 C 408.960938 398.171875 407.925781 397.917969 406.902344 397.613281 C 405.882812 397.304688 404.875 396.949219 403.890625 396.542969 C 402.902344 396.136719 401.9375 395.683594 400.992188 395.183594 C 400.050781 394.683594 399.132812 394.136719 398.246094 393.546875 C 397.355469 392.957031 396.496094 392.324219 395.667969 391.648438 C 394.84375 390.972656 394.050781 390.257812 393.292969 389.503906 C 392.535156 388.75 391.816406 387.960938 391.136719 387.132812 C 390.457031 386.308594 389.816406 385.453125 389.21875 384.566406 C 388.625 383.675781 388.070312 382.761719 387.566406 381.820312 C 387.058594 380.878906 386.597656 379.914062 386.1875 378.925781 C 385.773438 377.9375 385.410156 376.933594 385.097656 375.910156 C 384.78125 374.886719 384.519531 373.847656 384.304688 372.800781 C 384.09375 371.75 383.933594 370.691406 383.824219 369.628906 C 383.714844 368.5625 383.65625 367.496094 383.652344 366.421875 C 383.648438 365.351562 383.695312 364.285156 383.796875 363.21875 C 383.894531 362.152344 384.046875 361.09375 384.25 360.042969 C 384.453125 358.992188 384.707031 357.953125 385.015625 356.925781 C 385.320312 355.898438 385.671875 354.890625 386.078125 353.898438 C 386.480469 352.910156 386.933594 351.941406 387.429688 350.992188 C 387.929688 350.046875 388.472656 349.125 389.0625 348.234375 C 389.652344 347.339844 390.28125 346.480469 390.957031 345.648438 C 391.628906 344.816406 392.339844 344.019531 393.089844 343.261719 C 393.84375 342.5 394.628906 341.777344 395.449219 341.09375 C 396.273438 340.414062 397.125 339.773438 398.007812 339.171875 C 398.894531 338.574219 399.804688 338.019531 400.742188 337.511719 C 401.679688 337.003906 402.644531 336.539062 403.625 336.125 C 404.609375 335.710938 405.613281 335.347656 406.632812 335.03125 C 407.652344 334.71875 408.683594 334.453125 409.726562 334.238281 C 410.773438 334.027344 411.828125 333.863281 412.886719 333.753906 C 413.949219 333.644531 415.011719 333.585938 416.078125 333.582031 C 417.144531 333.578125 418.210938 333.625 419.273438 333.726562 C 420.335938 333.828125 421.386719 333.980469 422.4375 334.183594 C 423.484375 334.386719 424.515625 334.644531 425.539062 334.949219 C 426.5625 335.257812 427.566406 335.613281 428.554688 336.015625 C 429.539062 336.421875 430.503906 336.875 431.449219 337.375 C 432.390625 337.878906 433.308594 338.421875 434.195312 339.015625 Z M 434.195312 339.015625 "/><path style=" stroke:none;fill-rule:nonzero;fill:#e9e8e4;fill-opacity:1;" d="M 340.726562 343.296875 C 342.136719 343.601562 343.523438 343.976562 344.894531 344.417969 C 346.269531 344.859375 347.613281 345.367188 348.9375 345.941406 C 350.257812 346.515625 351.546875 347.15625 352.808594 347.855469 C 354.066406 348.558594 355.289062 349.320312 356.472656 350.144531 C 357.65625 350.96875 358.800781 351.847656 359.898438 352.78125 C 360.996094 353.714844 362.046875 354.703125 363.050781 355.742188 C 364.050781 356.78125 365 357.867188 365.894531 359 C 366.792969 360.132812 367.628906 361.304688 368.410156 362.519531 C 369.191406 363.734375 369.910156 364.988281 370.570312 366.273438 C 371.230469 367.558594 371.824219 368.875 372.351562 370.21875 C 372.882812 371.5625 373.34375 372.929688 373.742188 374.320312 C 374.136719 375.710938 374.464844 377.117188 374.722656 378.542969 C 374.980469 379.964844 375.167969 381.394531 375.289062 382.835938 C 375.40625 384.277344 375.453125 385.722656 375.429688 387.167969 C 375.40625 388.613281 375.3125 390.054688 375.148438 391.492188 C 374.984375 392.929688 374.75 394.355469 374.445312 395.765625 C 374.144531 397.179688 373.773438 398.578125 373.332031 399.953125 C 372.890625 401.332031 372.382812 402.683594 371.8125 404.007812 C 371.238281 405.335938 370.605469 406.632812 369.90625 407.894531 C 369.207031 409.160156 368.445312 410.386719 367.625 411.578125 C 366.808594 412.765625 365.929688 413.910156 365 415.015625 C 364.070312 416.117188 363.085938 417.171875 362.050781 418.179688 C 361.015625 419.183594 359.933594 420.136719 358.804688 421.035156 C 357.679688 421.9375 356.507812 422.777344 355.300781 423.5625 C 354.089844 424.34375 352.84375 425.066406 351.5625 425.730469 C 350.28125 426.390625 348.96875 426.988281 347.632812 427.519531 C 346.292969 428.050781 344.929688 428.515625 343.542969 428.914062 C 342.160156 429.308594 340.757812 429.636719 339.339844 429.898438 C 337.925781 430.15625 336.5 430.347656 335.0625 430.464844 C 333.628906 430.582031 332.1875 430.632812 330.75 430.609375 C 329.308594 430.585938 327.875 430.492188 326.441406 430.324219 C 325.011719 430.160156 323.589844 429.925781 322.183594 429.621094 C 320.777344 429.316406 319.386719 428.941406 318.015625 428.5 C 316.644531 428.058594 315.296875 427.550781 313.972656 426.976562 C 312.652344 426.402344 311.363281 425.761719 310.101562 425.0625 C 308.84375 424.359375 307.621094 423.597656 306.4375 422.773438 C 305.253906 421.949219 304.109375 421.070312 303.011719 420.136719 C 301.914062 419.203125 300.863281 418.214844 299.859375 417.175781 C 298.859375 416.136719 297.910156 415.050781 297.015625 413.917969 C 296.117188 412.785156 295.28125 411.613281 294.5 410.398438 C 293.71875 409.183594 293 407.929688 292.339844 406.644531 C 291.679688 405.359375 291.085938 404.042969 290.558594 402.699219 C 290.027344 401.355469 289.566406 399.988281 289.167969 398.597656 C 288.773438 397.207031 288.445312 395.800781 288.1875 394.375 C 287.929688 392.953125 287.742188 391.523438 287.625 390.082031 C 287.503906 388.640625 287.457031 387.195312 287.480469 385.75 C 287.503906 384.304688 287.597656 382.863281 287.761719 381.425781 C 287.925781 379.988281 288.160156 378.5625 288.464844 377.152344 C 288.765625 375.738281 289.140625 374.339844 289.578125 372.964844 C 290.019531 371.585938 290.527344 370.234375 291.097656 368.910156 C 291.671875 367.582031 292.304688 366.285156 293.007812 365.023438 C 293.707031 363.757812 294.464844 362.53125 295.285156 361.339844 C 296.101562 360.152344 296.980469 359.007812 297.910156 357.902344 C 298.84375 356.800781 299.824219 355.746094 300.859375 354.738281 C 301.894531 353.734375 302.976562 352.78125 304.105469 351.882812 C 305.230469 350.980469 306.402344 350.140625 307.609375 349.355469 C 308.820312 348.574219 310.066406 347.851562 311.347656 347.1875 C 312.628906 346.527344 313.941406 345.929688 315.277344 345.398438 C 316.617188 344.867188 317.980469 344.402344 319.367188 344.003906 C 320.75 343.609375 322.152344 343.277344 323.570312 343.019531 C 324.984375 342.761719 326.414062 342.570312 327.847656 342.453125 C 329.285156 342.335938 330.722656 342.285156 332.160156 342.308594 C 333.601562 342.332031 335.039062 342.425781 336.46875 342.59375 C 337.898438 342.757812 339.320312 342.992188 340.726562 343.296875 Z M 340.726562 343.296875 "/><path style=" stroke:none;fill-rule:nonzero;fill:#232323;fill-opacity:1;" d="M 409.34375 517.222656 C 407.738281 517.226562 406.328125 516.699219 405.117188 515.648438 C 404.789062 515.371094 404.492188 515.0625 404.222656 514.722656 C 403.957031 514.386719 403.726562 514.023438 403.53125 513.640625 C 403.335938 513.257812 403.175781 512.859375 403.058594 512.445312 C 402.941406 512.03125 402.867188 511.609375 402.832031 511.179688 C 402.796875 510.75 402.804688 510.320312 402.851562 509.890625 C 402.902344 509.464844 402.992188 509.046875 403.125 508.632812 C 403.257812 508.222656 403.425781 507.832031 403.636719 507.453125 C 403.84375 507.078125 404.089844 506.726562 404.367188 506.398438 C 429.761719 476.429688 439.476562 449.886719 439.578125 449.617188 C 439.722656 449.214844 439.90625 448.824219 440.125 448.457031 C 440.347656 448.085938 440.601562 447.742188 440.890625 447.425781 C 441.179688 447.105469 441.496094 446.816406 441.839844 446.5625 C 442.183594 446.304688 442.550781 446.085938 442.941406 445.902344 C 443.328125 445.71875 443.730469 445.574219 444.148438 445.46875 C 444.5625 445.367188 444.984375 445.304688 445.414062 445.28125 C 445.84375 445.261719 446.269531 445.28125 446.695312 445.347656 C 447.117188 445.410156 447.53125 445.515625 447.9375 445.660156 C 448.339844 445.804688 448.726562 445.988281 449.09375 446.210938 C 449.460938 446.433594 449.804688 446.6875 450.121094 446.976562 C 450.441406 447.265625 450.726562 447.585938 450.984375 447.929688 C 451.238281 448.277344 451.457031 448.644531 451.640625 449.035156 C 451.824219 449.425781 451.96875 449.828125 452.070312 450.246094 C 452.175781 450.664062 452.238281 451.089844 452.257812 451.519531 C 452.28125 451.949219 452.257812 452.378906 452.195312 452.804688 C 452.132812 453.230469 452.027344 453.644531 451.882812 454.050781 C 451.46875 455.21875 441.378906 483 414.328125 514.90625 C 413.707031 515.640625 412.960938 516.210938 412.089844 516.617188 C 411.21875 517.019531 410.304688 517.222656 409.34375 517.222656 Z M 409.34375 517.222656 "/><path style=" stroke:none;fill-rule:nonzero;fill:#e9e8e4;fill-opacity:1;" d="M 391.308594 603.839844 L 345.890625 568.242188 C 345.15625 567.664062 344.453125 567.054688 343.78125 566.410156 C 343.105469 565.769531 342.464844 565.089844 341.859375 564.382812 C 341.25 563.675781 340.679688 562.941406 340.144531 562.175781 C 339.609375 561.414062 339.109375 560.625 338.652344 559.8125 C 338.195312 559 337.777344 558.164062 337.398438 557.3125 C 337.023438 556.457031 336.6875 555.585938 336.394531 554.699219 C 336.105469 553.8125 335.855469 552.914062 335.652344 552.003906 C 335.449219 551.089844 335.289062 550.171875 335.175781 549.242188 C 335.0625 548.316406 334.996094 547.386719 334.972656 546.453125 C 334.949219 545.519531 334.972656 544.585938 335.042969 543.652344 C 335.109375 542.722656 335.222656 541.796875 335.382812 540.875 C 335.542969 539.957031 335.746094 539.046875 335.996094 538.144531 C 336.242188 537.246094 336.535156 536.359375 336.871094 535.488281 C 337.203125 534.617188 337.582031 533.761719 338 532.929688 C 338.417969 532.09375 338.878906 531.28125 339.375 530.492188 C 339.871094 529.703125 340.410156 528.941406 340.980469 528.207031 L 361.308594 502.066406 C 361.882812 501.328125 362.488281 500.621094 363.128906 499.945312 C 363.773438 499.269531 364.445312 498.625 365.148438 498.015625 C 365.855469 497.40625 366.585938 496.832031 367.347656 496.296875 C 368.109375 495.757812 368.894531 495.257812 369.703125 494.796875 C 370.511719 494.335938 371.34375 493.917969 372.195312 493.539062 C 373.042969 493.160156 373.910156 492.824219 374.796875 492.53125 C 375.679688 492.242188 376.574219 491.992188 377.484375 491.785156 C 378.390625 491.582031 379.304688 491.421875 380.230469 491.308594 C 381.152344 491.195312 382.082031 491.125 383.011719 491.105469 C 383.941406 491.082031 384.871094 491.105469 385.796875 491.171875 C 386.726562 491.242188 387.648438 491.355469 388.566406 491.515625 C 389.480469 491.675781 390.386719 491.878906 391.285156 492.128906 C 392.179688 492.378906 393.0625 492.671875 393.933594 493.007812 C 394.800781 493.34375 395.648438 493.722656 396.480469 494.144531 C 397.3125 494.5625 398.121094 495.023438 398.90625 495.523438 C 399.691406 496.023438 400.453125 496.5625 401.183594 497.136719 L 405.785156 500.738281 C 407.121094 501.789062 408.402344 502.898438 409.632812 504.074219 C 410.859375 505.246094 412.027344 506.480469 413.132812 507.769531 C 414.242188 509.058594 415.285156 510.398438 416.261719 511.792969 C 417.238281 513.183594 418.144531 514.621094 418.976562 516.101562 C 419.8125 517.585938 420.574219 519.105469 421.261719 520.660156 C 421.949219 522.21875 422.558594 523.804688 423.089844 525.421875 C 423.621094 527.039062 424.074219 528.675781 424.445312 530.339844 C 424.816406 532 425.105469 533.675781 425.3125 535.367188 C 425.519531 537.054688 425.644531 538.753906 425.6875 540.453125 C 425.726562 542.15625 425.683594 543.855469 425.558594 545.554688 C 425.433594 547.253906 425.226562 548.941406 424.9375 550.617188 C 424.648438 552.296875 424.273438 553.957031 423.824219 555.597656 C 423.371094 557.238281 422.839844 558.851562 422.226562 560.441406 C 421.617188 562.027344 420.929688 563.582031 420.167969 565.105469 C 419.402344 566.625 418.570312 568.105469 417.660156 569.542969 C 416.753906 570.980469 415.777344 572.371094 414.734375 573.714844 Z M 391.308594 603.839844 "/><path style=" stroke:none;fill-rule:nonzero;fill:#232323;fill-opacity:1;" d="M 391.550781 604.039062 L 349.113281 570.78125 C 349.511719 570.269531 349.933594 569.777344 350.378906 569.308594 C 350.824219 568.839844 351.289062 568.394531 351.78125 567.972656 C 352.269531 567.546875 352.777344 567.148438 353.304688 566.777344 C 353.832031 566.402344 354.378906 566.058594 354.9375 565.738281 C 355.5 565.417969 356.078125 565.128906 356.667969 564.863281 C 357.257812 564.601562 357.859375 564.371094 358.472656 564.167969 C 359.085938 563.964844 359.707031 563.789062 360.335938 563.648438 C 360.964844 563.507812 361.601562 563.398438 362.242188 563.316406 C 362.882812 563.238281 363.523438 563.191406 364.171875 563.175781 C 364.816406 563.160156 365.460938 563.175781 366.105469 563.222656 C 366.746094 563.269531 367.386719 563.351562 368.023438 563.460938 C 368.660156 563.570312 369.289062 563.714844 369.910156 563.886719 C 370.53125 564.058594 371.144531 564.261719 371.746094 564.496094 C 372.347656 564.730469 372.9375 564.992188 373.515625 565.285156 C 374.089844 565.574219 374.652344 565.894531 375.199219 566.242188 C 375.742188 566.589844 376.269531 566.960938 376.777344 567.359375 L 403.675781 588.445312 C 404.1875 588.84375 404.652344 589.289062 405.078125 589.78125 C 405.5 590.273438 405.871094 590.800781 406.1875 591.367188 C 406.507812 591.933594 406.769531 592.523438 406.972656 593.140625 C 407.175781 593.757812 407.316406 594.386719 407.394531 595.03125 C 407.472656 595.675781 407.488281 596.324219 407.441406 596.972656 C 407.394531 597.621094 407.28125 598.257812 407.109375 598.882812 C 406.9375 599.507812 406.707031 600.113281 406.414062 600.691406 C 406.125 601.273438 405.777344 601.816406 405.382812 602.332031 C 404.984375 602.84375 404.539062 603.308594 404.046875 603.734375 C 403.558594 604.160156 403.03125 604.53125 402.46875 604.851562 C 401.90625 605.171875 401.316406 605.433594 400.703125 605.636719 C 400.089844 605.839844 399.460938 605.980469 398.816406 606.0625 C 398.175781 606.140625 397.53125 606.15625 396.886719 606.109375 C 396.242188 606.058594 395.605469 605.949219 394.984375 605.777344 C 394.359375 605.601562 393.757812 605.371094 393.179688 605.078125 C 392.601562 604.785156 392.058594 604.441406 391.550781 604.039062 Z M 391.550781 604.039062 "/><path style=" stroke:none;fill-rule:nonzero;fill:#232323;fill-opacity:1;" d="M 764.734375 372.074219 C 761.304688 367.296875 755.105469 365.890625 750.9375 368.9375 L 733.929688 381.265625 C 729.71875 384.300781 729.097656 390.644531 732.539062 395.421875 C 735.96875 400.199219 742.15625 401.605469 746.335938 398.558594 L 754.839844 392.40625 L 763.34375 386.242188 C 767.542969 383.195312 768.164062 376.851562 764.734375 372.074219 Z M 764.734375 372.074219 "/><path style=" stroke:none;fill-rule:nonzero;fill:#232323;fill-opacity:1;" d="M 753.085938 355.878906 C 749.65625 351.097656 743.457031 349.695312 739.289062 352.742188 L 722.25 365.070312 C 718.054688 368.117188 717.421875 374.457031 720.859375 379.238281 C 724.289062 384.015625 730.480469 385.410156 734.65625 382.371094 L 743.160156 376.210938 L 751.667969 370.046875 C 755.894531 366.988281 756.523438 360.648438 753.085938 355.878906 Z M 753.085938 355.878906 "/><path style=" stroke:none;fill-rule:nonzero;fill:#232323;fill-opacity:1;" d="M 720.015625 337.625 C 716.585938 332.847656 710.5625 331.3125 706.582031 334.203125 L 690.460938 345.875 C 686.519531 348.765625 686.035156 354.976562 689.476562 359.726562 C 692.902344 364.503906 698.925781 366.039062 702.90625 363.148438 L 710.96875 357.3125 L 719.027344 351.464844 C 723 348.617188 723.453125 342.402344 720.015625 337.625 Z M 720.015625 337.625 "/><path style=" stroke:none;fill-rule:nonzero;fill:#232323;fill-opacity:1;" d="M 679.453125 390.792969 C 678.523438 390.484375 677.570312 390.394531 676.597656 390.519531 C 675.628906 390.644531 674.730469 390.972656 673.90625 391.503906 C 653.210938 404.832031 637.601562 402.109375 637.445312 402.082031 C 637.015625 401.976562 636.582031 401.914062 636.144531 401.898438 C 635.703125 401.882812 635.269531 401.910156 634.835938 401.980469 C 634.402344 402.054688 633.976562 402.167969 633.566406 402.324219 C 633.15625 402.480469 632.765625 402.679688 632.394531 402.914062 C 632.023438 403.152344 631.679688 403.421875 631.363281 403.726562 C 631.046875 404.035156 630.761719 404.367188 630.511719 404.730469 C 630.261719 405.09375 630.050781 405.480469 629.878906 405.886719 C 629.707031 406.289062 629.574219 406.710938 629.488281 407.140625 C 629.398438 407.574219 629.355469 408.011719 629.351562 408.453125 C 629.351562 408.894531 629.394531 409.332031 629.484375 409.761719 C 629.570312 410.195312 629.699219 410.617188 629.871094 411.023438 C 630.042969 411.429688 630.25 411.8125 630.5 412.175781 C 630.746094 412.542969 631.03125 412.878906 631.347656 413.183594 C 631.660156 413.492188 632.003906 413.761719 632.375 414 C 632.746094 414.238281 633.136719 414.4375 633.546875 414.59375 C 633.957031 414.753906 634.378906 414.867188 634.8125 414.941406 C 639.472656 415.679688 644.132812 415.679688 648.796875 414.941406 C 659.398438 413.539062 670.476562 409.253906 680.949219 402.546875 C 681.472656 402.210938 681.9375 401.808594 682.34375 401.339844 C 682.75 400.875 683.085938 400.359375 683.347656 399.792969 C 683.609375 399.230469 683.789062 398.644531 683.882812 398.027344 C 683.980469 397.414062 683.988281 396.800781 683.910156 396.183594 C 683.832031 395.566406 683.667969 394.972656 683.421875 394.402344 C 683.175781 393.832031 682.855469 393.308594 682.460938 392.832031 C 682.066406 392.351562 681.613281 391.9375 681.101562 391.585938 C 680.589844 391.238281 680.042969 390.964844 679.453125 390.773438 Z M 679.453125 390.792969 "/><path style=" stroke:none;fill-rule:nonzero;fill:#d6d6d4;fill-opacity:1;" d="M 643.222656 391.160156 C 643.777344 392.070312 644.289062 393.003906 644.75 393.964844 C 645.214844 394.925781 645.628906 395.90625 645.996094 396.90625 C 646.363281 397.910156 646.679688 398.925781 646.949219 399.960938 C 647.214844 400.992188 647.433594 402.035156 647.597656 403.089844 C 647.761719 404.144531 647.875 405.203125 647.9375 406.269531 C 648 407.332031 648.007812 408.398438 647.96875 409.464844 C 647.925781 410.53125 647.832031 411.59375 647.683594 412.648438 C 647.539062 413.707031 647.339844 414.753906 647.089844 415.792969 C 646.84375 416.828125 646.542969 417.851562 646.195312 418.859375 C 645.84375 419.867188 645.449219 420.855469 645 421.824219 C 644.554688 422.792969 644.0625 423.738281 643.527344 424.660156 C 642.988281 425.578125 642.40625 426.46875 641.78125 427.332031 C 641.15625 428.195312 640.488281 429.027344 639.78125 429.824219 C 639.074219 430.621094 638.332031 431.378906 637.550781 432.105469 C 636.769531 432.828125 635.957031 433.511719 635.109375 434.15625 C 634.261719 434.796875 633.382812 435.398438 632.476562 435.957031 C 631.570312 436.511719 630.636719 437.023438 629.679688 437.488281 C 628.722656 437.953125 627.746094 438.371094 626.75 438.738281 C 625.753906 439.105469 624.738281 439.425781 623.710938 439.695312 C 622.683594 439.960938 621.640625 440.179688 620.59375 440.347656 C 619.542969 440.511719 618.488281 440.625 617.425781 440.6875 C 616.363281 440.75 615.304688 440.761719 614.242188 440.71875 C 613.179688 440.675781 612.121094 440.578125 611.070312 440.433594 C 610.015625 440.285156 608.972656 440.085938 607.941406 439.835938 C 606.90625 439.585938 605.886719 439.289062 604.882812 438.9375 C 603.878906 438.585938 602.894531 438.1875 601.929688 437.742188 C 600.964844 437.292969 600.027344 436.800781 599.109375 436.257812 C 598.191406 435.71875 597.304688 435.132812 596.445312 434.507812 C 595.585938 433.878906 594.757812 433.210938 593.964844 432.5 C 593.171875 431.792969 592.414062 431.042969 591.691406 430.261719 C 590.972656 429.476562 590.289062 428.660156 589.648438 427.808594 C 589.007812 426.957031 588.410156 426.074219 587.855469 425.164062 C 587.300781 424.253906 586.792969 423.320312 586.328125 422.359375 C 585.867188 421.398438 585.453125 420.417969 585.085938 419.414062 C 584.71875 418.414062 584.398438 417.398438 584.132812 416.363281 C 583.863281 415.332031 583.648438 414.289062 583.484375 413.234375 C 583.316406 412.179688 583.203125 411.121094 583.140625 410.054688 C 583.078125 408.992188 583.070312 407.925781 583.113281 406.859375 C 583.15625 405.792969 583.25 404.730469 583.394531 403.671875 C 583.542969 402.617188 583.742188 401.570312 583.988281 400.53125 C 584.238281 399.496094 584.539062 398.472656 584.886719 397.464844 C 585.234375 396.457031 585.632812 395.46875 586.078125 394.5 C 586.523438 393.53125 587.015625 392.585938 587.554688 391.664062 C 588.09375 390.746094 588.675781 389.855469 589.300781 388.992188 C 589.925781 388.128906 590.589844 387.296875 591.296875 386.5 C 592.003906 385.703125 592.746094 384.945312 593.527344 384.21875 C 594.308594 383.496094 595.125 382.8125 595.972656 382.167969 C 596.820312 381.527344 597.699219 380.925781 598.605469 380.367188 C 599.511719 379.8125 600.441406 379.300781 601.398438 378.835938 C 602.355469 378.371094 603.332031 377.953125 604.332031 377.585938 C 605.328125 377.21875 606.339844 376.898438 607.371094 376.628906 C 608.398438 376.359375 609.4375 376.144531 610.488281 375.976562 C 611.539062 375.8125 612.59375 375.699219 613.652344 375.636719 C 614.714844 375.574219 615.777344 375.5625 616.839844 375.605469 C 617.902344 375.648438 618.957031 375.742188 620.011719 375.890625 C 621.0625 376.039062 622.105469 376.234375 623.140625 376.484375 C 624.171875 376.734375 625.191406 377.035156 626.195312 377.386719 C 627.199219 377.738281 628.183594 378.136719 629.148438 378.582031 C 630.113281 379.03125 631.054688 379.523438 631.972656 380.066406 C 632.886719 380.605469 633.777344 381.1875 634.636719 381.816406 C 635.496094 382.445312 636.320312 383.113281 637.117188 383.824219 C 637.910156 384.53125 638.667969 385.28125 639.386719 386.0625 C 640.109375 386.847656 640.789062 387.664062 641.429688 388.515625 C 642.070312 389.367188 642.667969 390.25 643.222656 391.160156 Z M 643.222656 391.160156 "/><path style=" stroke:none;fill-rule:nonzero;fill:#d6d6d4;fill-opacity:1;" d="M 726.488281 414.636719 C 726.488281 416.082031 726.417969 417.523438 726.277344 418.964844 C 726.136719 420.402344 725.925781 421.832031 725.644531 423.25 C 725.363281 424.667969 725.011719 426.070312 724.59375 427.453125 C 724.175781 428.835938 723.691406 430.195312 723.140625 431.53125 C 722.589844 432.867188 721.972656 434.175781 721.296875 435.449219 C 720.617188 436.726562 719.875 437.964844 719.074219 439.167969 C 718.277344 440.367188 717.417969 441.527344 716.503906 442.648438 C 715.589844 443.765625 714.625 444.835938 713.605469 445.859375 C 712.589844 446.878906 711.523438 447.851562 710.410156 448.765625 C 709.296875 449.683594 708.140625 450.546875 706.941406 451.347656 C 705.746094 452.152344 704.511719 452.894531 703.238281 453.578125 C 701.96875 454.257812 700.667969 454.875 699.339844 455.429688 C 698.007812 455.984375 696.652344 456.46875 695.273438 456.890625 C 693.894531 457.308594 692.5 457.660156 691.089844 457.941406 C 689.675781 458.222656 688.253906 458.4375 686.820312 458.578125 C 685.386719 458.71875 683.949219 458.789062 682.507812 458.789062 C 681.066406 458.789062 679.628906 458.71875 678.195312 458.578125 C 676.761719 458.4375 675.339844 458.222656 673.925781 457.941406 C 672.515625 457.660156 671.121094 457.308594 669.742188 456.890625 C 668.363281 456.46875 667.007812 455.984375 665.675781 455.429688 C 664.347656 454.875 663.046875 454.257812 661.777344 453.578125 C 660.503906 452.894531 659.269531 452.152344 658.074219 451.347656 C 656.875 450.546875 655.71875 449.683594 654.605469 448.765625 C 653.492188 447.851562 652.425781 446.878906 651.410156 445.859375 C 650.390625 444.835938 649.425781 443.765625 648.511719 442.648438 C 647.597656 441.527344 646.738281 440.367188 645.941406 439.167969 C 645.140625 437.964844 644.398438 436.726562 643.71875 435.449219 C 643.042969 434.175781 642.425781 432.867188 641.875 431.53125 C 641.324219 430.195312 640.839844 428.835938 640.421875 427.453125 C 640.003906 426.070312 639.652344 424.667969 639.371094 423.25 C 639.089844 421.832031 638.878906 420.402344 638.738281 418.964844 C 638.597656 417.523438 638.527344 416.082031 638.527344 414.636719 C 638.527344 413.1875 638.597656 411.746094 638.738281 410.308594 C 638.878906 408.867188 639.089844 407.441406 639.371094 406.019531 C 639.652344 404.601562 640.003906 403.203125 640.421875 401.816406 C 640.839844 400.433594 641.324219 399.074219 641.875 397.738281 C 642.425781 396.402344 643.042969 395.097656 643.71875 393.820312 C 644.398438 392.546875 645.140625 391.308594 645.941406 390.105469 C 646.738281 388.902344 647.597656 387.742188 648.511719 386.625 C 649.425781 385.507812 650.390625 384.4375 651.410156 383.414062 C 652.425781 382.390625 653.492188 381.421875 654.605469 380.503906 C 655.71875 379.585938 656.875 378.726562 658.074219 377.921875 C 659.269531 377.117188 660.503906 376.375 661.777344 375.695312 C 663.046875 375.011719 664.347656 374.394531 665.675781 373.839844 C 667.007812 373.289062 668.363281 372.800781 669.742188 372.382812 C 671.121094 371.960938 672.515625 371.609375 673.925781 371.328125 C 675.339844 371.046875 676.761719 370.835938 678.195312 370.695312 C 679.628906 370.550781 681.066406 370.480469 682.507812 370.480469 C 683.949219 370.480469 685.386719 370.550781 686.820312 370.695312 C 688.253906 370.835938 689.675781 371.046875 691.089844 371.328125 C 692.5 371.609375 693.894531 371.960938 695.273438 372.382812 C 696.652344 372.800781 698.007812 373.289062 699.339844 373.839844 C 700.667969 374.394531 701.96875 375.011719 703.238281 375.695312 C 704.511719 376.375 705.746094 377.117188 706.941406 377.921875 C 708.140625 378.726562 709.296875 379.585938 710.410156 380.503906 C 711.523438 381.421875 712.589844 382.390625 713.605469 383.414062 C 714.625 384.4375 715.589844 385.507812 716.503906 386.625 C 717.417969 387.742188 718.277344 388.902344 719.074219 390.105469 C 719.875 391.308594 720.617188 392.546875 721.296875 393.820312 C 721.972656 395.097656 722.589844 396.402344 723.140625 397.738281 C 723.691406 399.074219 724.175781 400.433594 724.59375 401.816406 C 725.011719 403.203125 725.363281 404.601562 725.644531 406.019531 C 725.925781 407.441406 726.136719 408.867188 726.277344 410.308594 C 726.417969 411.746094 726.488281 413.1875 726.488281 414.636719 Z M 726.488281 414.636719 "/><path style=" stroke:none;fill-rule:nonzero;fill:#e9e8e4;fill-opacity:1;" d="M 595.738281 370.699219 C 595.738281 370.699219 580.414062 434.550781 556.921875 470.386719 C 555.914062 471.933594 554.71875 473.320312 553.339844 474.546875 C 551.964844 475.777344 550.449219 476.800781 548.800781 477.625 C 547.152344 478.449219 545.421875 479.042969 543.617188 479.40625 C 541.8125 479.769531 539.988281 479.886719 538.148438 479.765625 C 518.5 478.429688 477.054688 473.550781 442.445312 455.832031 C 441.558594 455.378906 440.714844 454.867188 439.902344 454.292969 C 439.09375 453.71875 438.328125 453.085938 437.605469 452.402344 C 436.886719 451.71875 436.21875 450.984375 435.605469 450.203125 C 434.988281 449.421875 434.433594 448.601562 433.933594 447.738281 C 433.4375 446.875 433.003906 445.984375 432.632812 445.058594 C 432.265625 444.136719 431.964844 443.1875 431.730469 442.222656 C 431.496094 441.253906 431.332031 440.273438 431.238281 439.28125 C 431.144531 438.289062 431.121094 437.296875 431.171875 436.300781 C 432.5 407.550781 437.082031 339.5625 451.214844 328.273438 C 480.648438 304.71875 595.738281 370.699219 595.738281 370.699219 Z M 595.738281 370.699219 "/><path style=" stroke:none;fill-rule:nonzero;fill:#232323;fill-opacity:1;" d="M 425.308594 391.1875 L 437.929688 342.65625 C 438.144531 341.828125 438.4375 341.03125 438.808594 340.261719 C 439.179688 339.492188 439.621094 338.769531 440.136719 338.089844 C 440.648438 337.40625 441.226562 336.78125 441.859375 336.214844 C 442.496094 335.648438 443.183594 335.148438 443.917969 334.714844 C 444.648438 334.285156 445.417969 333.929688 446.222656 333.648438 C 447.027344 333.367188 447.851562 333.171875 448.695312 333.054688 C 449.535156 332.9375 450.382812 332.902344 451.230469 332.953125 C 452.082031 333.003906 452.917969 333.136719 453.742188 333.351562 L 588.144531 368.578125 C 588.96875 368.792969 589.761719 369.085938 590.527344 369.460938 C 591.292969 369.832031 592.015625 370.277344 592.695312 370.792969 C 593.371094 371.308594 593.996094 371.886719 594.558594 372.523438 C 595.125 373.164062 595.621094 373.851562 596.050781 374.585938 C 596.484375 375.324219 596.835938 376.097656 597.117188 376.902344 C 597.394531 377.710938 597.59375 378.539062 597.707031 379.382812 C 597.824219 380.230469 597.859375 381.078125 597.808594 381.933594 C 597.757812 382.785156 597.625 383.625 597.410156 384.449219 L 584.792969 432.984375 C 584.578125 433.8125 584.285156 434.609375 583.910156 435.378906 C 583.539062 436.144531 583.097656 436.871094 582.585938 437.550781 C 582.070312 438.234375 581.496094 438.855469 580.859375 439.425781 C 580.222656 439.992188 579.539062 440.492188 578.804688 440.921875 C 578.070312 441.355469 577.300781 441.710938 576.496094 441.992188 C 575.695312 442.269531 574.871094 442.46875 574.027344 442.585938 C 573.183594 442.703125 572.339844 442.738281 571.488281 442.6875 C 570.640625 442.636719 569.804688 442.503906 568.980469 442.285156 L 434.574219 407.0625 C 433.753906 406.847656 432.957031 406.554688 432.191406 406.179688 C 431.425781 405.808594 430.703125 405.363281 430.027344 404.847656 C 429.347656 404.332031 428.726562 403.753906 428.160156 403.117188 C 427.597656 402.476562 427.097656 401.789062 426.667969 401.050781 C 426.238281 400.316406 425.882812 399.542969 425.605469 398.734375 C 425.328125 397.929688 425.128906 397.101562 425.011719 396.257812 C 424.894531 395.410156 424.863281 394.558594 424.914062 393.707031 C 424.960938 392.855469 425.09375 392.015625 425.308594 391.1875 Z M 425.308594 391.1875 "/><path style=" stroke:none;fill-rule:nonzero;fill:#d6d6d4;fill-opacity:1;" d="M 618.566406 63.71875 C 619.214844 65.003906 619.796875 66.320312 620.3125 67.660156 C 620.832031 69.003906 621.285156 70.367188 621.667969 71.757812 C 622.054688 73.144531 622.371094 74.546875 622.617188 75.964844 C 622.867188 77.382812 623.042969 78.808594 623.152344 80.246094 C 623.261719 81.679688 623.296875 83.121094 623.265625 84.558594 C 623.234375 86 623.128906 87.433594 622.957031 88.863281 C 622.785156 90.292969 622.542969 91.710938 622.230469 93.113281 C 621.917969 94.519531 621.539062 95.90625 621.089844 97.273438 C 620.644531 98.644531 620.128906 99.984375 619.550781 101.304688 C 618.972656 102.621094 618.332031 103.90625 617.625 105.160156 C 616.921875 106.414062 616.15625 107.632812 615.332031 108.808594 C 614.507812 109.988281 613.628906 111.125 612.695312 112.214844 C 611.757812 113.308594 610.773438 114.351562 609.738281 115.347656 C 608.699219 116.339844 607.617188 117.28125 606.488281 118.171875 C 605.359375 119.058594 604.1875 119.890625 602.976562 120.660156 C 601.769531 121.433594 600.523438 122.144531 599.242188 122.792969 C 597.960938 123.445312 596.652344 124.03125 595.316406 124.550781 C 593.980469 125.070312 592.621094 125.523438 591.238281 125.910156 C 589.855469 126.296875 588.460938 126.613281 587.046875 126.863281 C 585.632812 127.113281 584.210938 127.289062 582.78125 127.398438 C 581.351562 127.507812 579.921875 127.546875 578.484375 127.511719 C 577.050781 127.480469 575.625 127.375 574.199219 127.203125 C 572.777344 127.027344 571.363281 126.785156 569.964844 126.472656 C 568.5625 126.160156 567.183594 125.777344 565.820312 125.328125 C 564.457031 124.878906 563.121094 124.363281 561.808594 123.785156 C 560.496094 123.203125 559.214844 122.558594 557.964844 121.851562 C 556.714844 121.144531 555.503906 120.375 554.332031 119.546875 C 553.15625 118.722656 552.023438 117.839844 550.9375 116.898438 C 549.851562 115.960938 548.8125 114.972656 547.820312 113.929688 C 546.828125 112.890625 545.890625 111.800781 545.007812 110.667969 C 544.121094 109.535156 543.296875 108.359375 542.527344 107.144531 C 541.757812 105.929688 541.046875 104.679688 540.402344 103.394531 C 539.753906 102.109375 539.171875 100.796875 538.652344 99.453125 C 538.132812 98.109375 537.683594 96.746094 537.296875 95.359375 C 536.914062 93.972656 536.597656 92.570312 536.347656 91.152344 C 536.101562 89.730469 535.921875 88.304688 535.816406 86.871094 C 535.707031 85.433594 535.667969 83.996094 535.703125 82.554688 C 535.734375 81.117188 535.835938 79.683594 536.011719 78.253906 C 536.183594 76.824219 536.425781 75.40625 536.738281 74 C 537.050781 72.59375 537.429688 71.207031 537.875 69.839844 C 538.324219 68.472656 538.835938 67.128906 539.417969 65.8125 C 539.996094 64.492188 540.636719 63.207031 541.339844 61.953125 C 542.046875 60.699219 542.8125 59.484375 543.632812 58.304688 C 544.457031 57.125 545.335938 55.992188 546.273438 54.898438 C 547.207031 53.804688 548.191406 52.761719 549.230469 51.769531 C 550.265625 50.773438 551.351562 49.832031 552.480469 48.945312 C 553.609375 48.054688 554.777344 47.226562 555.988281 46.453125 C 557.199219 45.679688 558.445312 44.96875 559.722656 44.320312 C 561.003906 43.671875 562.3125 43.085938 563.652344 42.566406 C 564.988281 42.042969 566.347656 41.589844 567.730469 41.203125 C 569.109375 40.816406 570.507812 40.5 571.921875 40.25 C 573.332031 40.003906 574.753906 39.824219 576.183594 39.714844 C 577.613281 39.605469 579.046875 39.570312 580.480469 39.601562 C 581.914062 39.636719 583.34375 39.738281 584.765625 39.910156 C 586.191406 40.085938 587.601562 40.328125 589.003906 40.640625 C 590.402344 40.957031 591.785156 41.335938 593.148438 41.785156 C 594.511719 42.234375 595.847656 42.75 597.160156 43.332031 C 598.472656 43.914062 599.753906 44.558594 601 45.265625 C 602.25 45.972656 603.460938 46.738281 604.636719 47.566406 C 605.8125 48.394531 606.941406 49.277344 608.03125 50.214844 C 609.117188 51.152344 610.15625 52.144531 611.148438 53.183594 C 612.136719 54.226562 613.074219 55.3125 613.960938 56.445312 C 614.84375 57.582031 615.671875 58.753906 616.441406 59.96875 C 617.210938 61.183594 617.917969 62.433594 618.566406 63.71875 Z M 618.566406 63.71875 "/><path style=" stroke:none;fill-rule:nonzero;fill:#d6d6d4;fill-opacity:1;" d="M 691.988281 333.695312 L 738.699219 337.929688 C 739.640625 338.015625 740.585938 338.015625 741.527344 337.925781 C 742.472656 337.839844 743.398438 337.667969 744.308594 337.40625 C 745.222656 337.148438 746.101562 336.808594 746.949219 336.386719 C 747.800781 335.964844 748.605469 335.472656 749.363281 334.902344 C 750.121094 334.332031 750.824219 333.699219 751.464844 333 C 752.109375 332.304688 752.683594 331.550781 753.191406 330.75 C 753.695312 329.945312 754.125 329.101562 754.476562 328.21875 C 754.828125 327.335938 755.097656 326.425781 755.28125 325.496094 L 765.542969 274.046875 C 765.714844 273.183594 765.8125 272.308594 765.839844 271.429688 C 765.863281 270.546875 765.816406 269.667969 765.691406 268.796875 C 765.566406 267.921875 765.371094 267.066406 765.101562 266.226562 C 764.832031 265.386719 764.496094 264.574219 764.085938 263.792969 C 763.679688 263.011719 763.210938 262.269531 762.679688 261.566406 C 762.144531 260.867188 761.558594 260.214844 760.914062 259.613281 C 760.269531 259.011719 759.582031 258.46875 758.847656 257.988281 C 758.109375 257.503906 757.339844 257.085938 756.535156 256.734375 L 711.28125 236.949219 Z M 691.988281 333.695312 "/><path style=" stroke:none;fill-rule:nonzero;fill:#d6d6d4;fill-opacity:1;" d="M 386.71875 272.308594 L 341.988281 258.148438 C 341.085938 257.863281 340.214844 257.496094 339.378906 257.050781 C 338.539062 256.605469 337.75 256.085938 337.007812 255.492188 C 336.265625 254.902344 335.585938 254.25 334.960938 253.53125 C 334.339844 252.8125 333.785156 252.046875 333.304688 251.226562 C 332.820312 250.40625 332.417969 249.550781 332.089844 248.660156 C 331.765625 247.765625 331.523438 246.851562 331.363281 245.914062 C 331.203125 244.972656 331.132812 244.03125 331.144531 243.078125 C 331.160156 242.128906 331.257812 241.183594 331.445312 240.253906 L 341.703125 188.804688 C 341.875 187.941406 342.121094 187.097656 342.4375 186.273438 C 342.75 185.453125 343.132812 184.660156 343.585938 183.902344 C 344.035156 183.144531 344.542969 182.429688 345.117188 181.761719 C 345.6875 181.089844 346.308594 180.472656 346.984375 179.910156 C 347.660156 179.34375 348.378906 178.839844 349.140625 178.398438 C 349.898438 177.957031 350.691406 177.585938 351.515625 177.277344 C 352.339844 176.972656 353.183594 176.738281 354.046875 176.574219 C 354.910156 176.414062 355.78125 176.324219 356.660156 176.3125 L 406.011719 175.550781 Z M 386.71875 272.308594 "/><path style=" stroke:none;fill-rule:nonzero;fill:#e9e8e4;fill-opacity:1;" d="M 362.828125 224.363281 C 343.96875 318.875 420.074219 368.808594 522.136719 389.277344 C 624.199219 409.75 713.570312 393.234375 732.421875 298.695312 C 751.273438 204.152344 686.921875 95.410156 584.859375 74.894531 C 482.796875 54.375 381.640625 129.851562 362.828125 224.363281 Z M 362.828125 224.363281 "/><path style=" stroke:none;fill-rule:nonzero;fill:#232323;fill-opacity:1;" d="M 403.675781 234.097656 C 389.023438 307.566406 450.625 333.945312 530 349.902344 C 609.378906 365.859375 676.289062 365.347656 690.992188 291.855469 C 705.695312 218.367188 655.59375 133.859375 576.277344 117.898438 C 496.957031 101.941406 418.339844 160.628906 403.675781 234.097656 Z M 403.675781 234.097656 "/><path style=" stroke:none;fill-rule:nonzero;fill:#e9e8e4;fill-opacity:1;" d="M 573.910156 267.421875 C 573.769531 268.097656 573.65625 268.78125 573.582031 269.472656 C 573.503906 270.160156 573.460938 270.851562 573.453125 271.546875 C 573.445312 272.238281 573.472656 272.933594 573.53125 273.621094 C 573.589844 274.3125 573.683594 275 573.8125 275.683594 C 573.941406 276.363281 574.101562 277.039062 574.296875 277.703125 C 574.488281 278.367188 574.714844 279.023438 574.976562 279.667969 C 575.234375 280.308594 575.523438 280.9375 575.84375 281.550781 C 576.164062 282.167969 576.515625 282.765625 576.894531 283.34375 C 577.273438 283.921875 577.679688 284.480469 578.117188 285.019531 C 578.550781 285.558594 579.011719 286.078125 579.496094 286.570312 C 579.980469 287.0625 580.492188 287.53125 581.023438 287.972656 C 581.554688 288.417969 582.105469 288.832031 582.679688 289.21875 C 583.253906 289.609375 583.84375 289.964844 584.449219 290.296875 C 585.058594 290.625 585.679688 290.921875 586.320312 291.191406 C 586.957031 291.457031 587.605469 291.691406 588.265625 291.894531 C 588.925781 292.097656 589.597656 292.265625 590.273438 292.402344 C 590.953125 292.539062 591.632812 292.640625 592.320312 292.710938 C 593.007812 292.777344 593.699219 292.8125 594.390625 292.8125 C 595.078125 292.8125 595.769531 292.777344 596.457031 292.710938 C 597.144531 292.640625 597.828125 292.539062 598.503906 292.402344 C 599.179688 292.265625 599.851562 292.09375 600.511719 291.890625 C 601.171875 291.6875 601.820312 291.453125 602.457031 291.1875 C 603.09375 290.917969 603.71875 290.621094 604.324219 290.289062 C 604.933594 289.960938 605.523438 289.601562 606.097656 289.214844 C 606.667969 288.824219 607.222656 288.410156 607.753906 287.96875 C 608.285156 287.523438 608.792969 287.054688 609.277344 286.5625 C 609.761719 286.070312 610.222656 285.550781 610.65625 285.011719 C 611.09375 284.472656 611.5 283.914062 611.878906 283.335938 C 612.257812 282.753906 612.605469 282.15625 612.929688 281.542969 C 613.25 280.929688 613.539062 280.300781 613.796875 279.65625 C 614.054688 279.011719 614.28125 278.359375 614.472656 277.691406 C 614.667969 277.027344 614.828125 276.351562 614.957031 275.671875 C 617.230469 264.292969 611.160156 246.78125 599.828125 244.507812 C 588.496094 242.230469 576.1875 256.042969 573.910156 267.421875 Z M 573.910156 267.421875 "/><path style=" stroke:none;fill-rule:nonzero;fill:#e9e8e4;fill-opacity:1;" d="M 471.898438 246.910156 C 471.773438 247.582031 471.679688 248.257812 471.621094 248.9375 C 471.5625 249.617188 471.535156 250.300781 471.542969 250.980469 C 471.546875 251.664062 471.585938 252.347656 471.660156 253.023438 C 471.734375 253.703125 471.835938 254.378906 471.976562 255.046875 C 472.113281 255.714844 472.285156 256.375 472.484375 257.027344 C 472.6875 257.679688 472.921875 258.320312 473.1875 258.949219 C 473.449219 259.578125 473.742188 260.191406 474.066406 260.792969 C 474.390625 261.394531 474.746094 261.976562 475.125 262.542969 C 475.503906 263.109375 475.914062 263.65625 476.347656 264.179688 C 476.78125 264.707031 477.238281 265.210938 477.71875 265.691406 C 478.203125 266.171875 478.707031 266.628906 479.234375 267.0625 C 479.761719 267.492188 480.308594 267.898438 480.875 268.277344 C 481.441406 268.65625 482.023438 269.003906 482.625 269.324219 C 483.222656 269.648438 483.839844 269.9375 484.464844 270.199219 C 485.09375 270.460938 485.734375 270.691406 486.386719 270.890625 C 487.035156 271.085938 487.695312 271.253906 488.363281 271.386719 C 489.027344 271.523438 489.699219 271.621094 490.378906 271.691406 C 491.054688 271.757812 491.730469 271.792969 492.414062 271.796875 C 493.09375 271.796875 493.769531 271.765625 494.449219 271.703125 C 495.125 271.636719 495.796875 271.539062 496.464844 271.410156 C 497.132812 271.28125 497.792969 271.117188 498.445312 270.921875 C 499.097656 270.726562 499.738281 270.5 500.367188 270.246094 C 500.996094 269.988281 501.613281 269.699219 502.214844 269.382812 C 502.816406 269.0625 503.402344 268.714844 503.96875 268.339844 C 504.539062 267.964844 505.085938 267.5625 505.617188 267.136719 C 506.144531 266.707031 506.652344 266.253906 507.136719 265.773438 C 507.625 265.296875 508.085938 264.796875 508.519531 264.273438 C 508.957031 263.746094 509.367188 263.203125 509.75 262.640625 C 510.136719 262.078125 510.492188 261.496094 510.816406 260.898438 C 511.144531 260.296875 511.441406 259.683594 511.710938 259.058594 C 511.980469 258.429688 512.214844 257.789062 512.421875 257.140625 C 512.628906 256.488281 512.800781 255.828125 512.941406 255.160156 C 515.210938 243.785156 509.148438 226.273438 497.816406 223.996094 C 486.484375 221.722656 474.175781 235.523438 471.898438 246.910156 Z M 471.898438 246.910156 "/><path style=" stroke:none;fill-rule:nonzero;fill:#e9e8e4;fill-opacity:1;" d="M 545.914062 288.890625 C 538.957031 288.890625 529.8125 286.742188 520.066406 278.667969 L 523.386719 274.621094 C 540.917969 289.136719 555.75 281.835938 556.371094 281.546875 L 558.777344 286.207031 C 554.691406 288.082031 550.40625 288.976562 545.914062 288.890625 Z M 545.914062 288.890625 "/><path style=" stroke:none;fill-rule:nonzero;fill:#ffffff;fill-opacity:1;" d="M 304.222656 369.5625 C 281.878906 369.5625 260.835938 374.371094 241.738281 383.074219 C 239.53125 384.113281 237.449219 385.023438 235.371094 386.191406 C 233.683594 386.972656 232.125 387.878906 230.4375 388.789062 C 203.414062 403.988281 181.460938 427.113281 167.949219 455.171875 C 166.523438 458.289062 165.09375 461.40625 163.921875 464.523438 C 160.675781 472.710938 157.949219 481.28125 156.128906 490.117188 C 154.179688 499.988281 153.011719 510.121094 153.011719 520.515625 C 153.011719 530.90625 154.050781 541.171875 156.128906 550.914062 C 170.160156 619.761719 231.085938 671.464844 304.09375 671.464844 C 377.101562 671.464844 396.328125 648.34375 423.867188 612.359375 C 443.484375 586.898438 455.042969 555.070312 455.042969 520.386719 C 455.042969 436.984375 387.363281 369.304688 303.964844 369.304688 Z M 304.222656 369.5625 "/><g clip-rule="nonzero" clip-path="url(#12c73ce1a8)"><path style=" stroke:none;fill-rule:nonzero;fill:#ffffff;fill-opacity:1;" d="M 493.496094 568.582031 L 469.464844 568.582031 C 468.296875 572.738281 466.867188 576.894531 465.308594 580.921875 C 465.175781 581.3125 465.046875 581.832031 464.789062 582.21875 C 463.359375 585.988281 461.667969 589.753906 459.980469 593.523438 C 459.722656 594.171875 459.460938 594.691406 459.203125 595.339844 C 457.511719 598.976562 455.5625 602.484375 453.617188 605.863281 C 453.226562 606.511719 452.964844 607.03125 452.578125 607.683594 C 450.496094 611.058594 448.417969 614.4375 446.210938 617.816406 C 445.820312 618.335938 445.5625 618.855469 445.171875 619.242188 C 442.832031 622.621094 440.363281 625.871094 437.765625 628.988281 C 437.507812 629.246094 437.378906 629.507812 437.117188 629.765625 C 434.519531 633.015625 431.792969 636.132812 428.933594 639.121094 C 428.804688 639.25 428.671875 639.378906 428.542969 639.640625 C 425.6875 642.628906 422.699219 645.484375 419.710938 648.214844 C 419.320312 648.601562 418.929688 648.992188 418.539062 649.382812 C 415.554688 651.980469 412.433594 654.578125 409.316406 657.046875 C 408.796875 657.4375 408.277344 657.828125 407.757812 658.347656 C 404.640625 660.683594 401.394531 663.023438 398.015625 665.101562 C 397.496094 665.492188 396.847656 665.878906 396.328125 666.140625 C 392.949219 668.347656 389.441406 670.296875 385.933594 672.246094 C 385.414062 672.503906 385.023438 672.765625 384.503906 673.023438 C 380.867188 674.972656 377.101562 676.792969 373.203125 678.480469 C 373.074219 678.480469 372.8125 678.613281 372.683594 678.742188 C 368.785156 680.429688 364.890625 681.988281 360.863281 683.289062 C 360.472656 683.289062 360.210938 683.546875 359.824219 683.675781 C 355.925781 684.976562 351.898438 686.144531 347.871094 687.316406 C 347.222656 687.445312 346.703125 687.703125 346.054688 687.835938 C 342.15625 688.875 338.128906 689.652344 333.972656 690.433594 C 333.320312 690.433594 332.542969 690.691406 331.894531 690.824219 C 327.867188 691.472656 323.710938 691.992188 319.550781 692.382812 C 318.902344 692.382812 318.253906 692.382812 317.472656 692.511719 C 313.1875 692.902344 308.898438 693.03125 304.613281 693.03125 C 303.574219 693.03125 302.535156 693.03125 301.496094 693.03125 C 299.675781 693.03125 297.988281 693.03125 296.167969 692.902344 C 295.128906 692.902344 293.960938 692.769531 292.792969 692.640625 C 290.972656 692.640625 289.152344 692.382812 287.335938 692.25 C 286.554688 692.25 285.777344 692.121094 284.996094 691.992188 C 283.046875 691.730469 281.101562 691.472656 279.152344 691.210938 C 275.644531 690.691406 272.136719 690.042969 268.757812 689.394531 C 266.808594 689.003906 264.859375 688.484375 262.914062 688.09375 C 261.09375 687.703125 259.273438 687.183594 257.328125 686.664062 C 254.078125 685.757812 250.832031 684.71875 247.582031 683.546875 C 246.15625 683.027344 244.597656 682.507812 243.167969 681.988281 C 240.4375 680.949219 237.710938 679.78125 234.984375 678.609375 C 232.902344 677.703125 230.824219 676.792969 228.878906 675.753906 C 227.058594 674.84375 225.109375 673.933594 223.292969 672.894531 C 221.082031 671.726562 219.003906 670.558594 216.925781 669.386719 C 214.976562 668.21875 213.027344 667.050781 211.078125 665.75 C 208.871094 664.320312 206.792969 662.890625 204.714844 661.464844 C 203.546875 660.683594 202.375 659.90625 201.207031 658.996094 C 198.347656 656.785156 195.492188 654.578125 192.761719 652.238281 C 191.855469 651.460938 190.816406 650.679688 189.90625 649.773438 C 187.046875 647.304688 184.320312 644.707031 181.722656 641.976562 C 181.070312 641.328125 180.421875 640.679688 179.902344 640.027344 C 177.433594 637.429688 174.964844 634.703125 172.628906 631.84375 C 172.238281 631.457031 171.847656 630.933594 171.457031 630.546875 C 168.992188 627.558594 166.523438 624.308594 164.183594 621.191406 C 163.535156 620.414062 163.015625 619.503906 162.363281 618.722656 C 160.15625 615.605469 158.207031 612.359375 156.257812 609.109375 C 155.609375 608.070312 155.089844 607.03125 154.570312 606.125 C 152.882812 603.265625 151.324219 600.40625 149.894531 597.417969 C 149.246094 596.121094 148.59375 594.820312 147.945312 593.390625 C 146.644531 590.664062 145.476562 587.9375 144.4375 585.078125 C 143.917969 583.648438 143.269531 582.21875 142.75 580.792969 C 141.578125 577.542969 140.539062 574.296875 139.5 571.046875 C 138.980469 569.488281 138.59375 567.800781 138.074219 566.242188 C 137.292969 563.253906 136.511719 560.265625 135.863281 557.277344 C 135.472656 555.589844 135.214844 554.03125 134.953125 552.34375 C 134.433594 549.222656 133.914062 545.976562 133.527344 542.730469 C 133.394531 541.558594 133.265625 540.390625 133.136719 539.222656 C 133.007812 537.664062 132.875 536.105469 132.746094 534.542969 C 132.746094 533.117188 132.488281 531.6875 132.488281 530.386719 C 132.488281 528.179688 132.355469 525.972656 132.355469 523.761719 C 132.355469 522.851562 132.355469 522.074219 132.355469 521.164062 C 132.355469 518.046875 132.355469 515.058594 132.617188 512.070312 C 132.617188 511.292969 132.617188 510.640625 132.746094 509.992188 C 132.875 507.652344 133.007812 505.316406 133.265625 503.105469 C 133.265625 501.9375 133.527344 500.898438 133.65625 499.730469 C 133.914062 497.910156 134.175781 495.960938 134.433594 494.144531 C 134.566406 492.976562 134.824219 491.675781 135.085938 490.507812 C 135.34375 488.816406 135.734375 487.128906 135.992188 485.441406 C 136.253906 484.140625 136.511719 482.972656 136.902344 481.671875 C 137.292969 479.984375 137.683594 478.425781 138.074219 476.867188 C 138.460938 475.566406 138.722656 474.398438 139.113281 473.097656 C 139.5 471.539062 140.019531 469.980469 140.539062 468.421875 C 140.929688 467.125 141.320312 465.953125 141.839844 464.65625 C 142.359375 463.097656 142.878906 461.667969 143.527344 460.109375 C 144.046875 458.9375 144.4375 457.640625 144.957031 456.472656 C 145.605469 455.042969 146.125 453.484375 146.777344 452.054688 C 147.296875 450.886719 147.816406 449.714844 148.335938 448.417969 C 148.984375 446.988281 149.632812 445.558594 150.414062 444.128906 C 150.933594 442.960938 151.582031 441.792969 152.230469 440.621094 C 153.011719 439.191406 153.792969 437.894531 154.570312 436.464844 C 155.21875 435.296875 155.871094 434.257812 156.519531 433.085938 C 157.296875 431.660156 158.207031 430.359375 158.988281 429.0625 C 159.636719 428.019531 160.285156 426.851562 161.066406 425.8125 C 161.976562 424.515625 162.882812 423.085938 163.792969 421.785156 C 164.445312 420.746094 165.222656 419.707031 165.871094 418.796875 C 166.910156 417.5 167.949219 416.070312 168.992188 414.769531 C 169.769531 413.863281 170.417969 412.953125 171.199219 412.042969 C 172.367188 410.613281 173.535156 409.183594 174.835938 407.886719 C 175.484375 407.105469 176.136719 406.328125 176.785156 405.546875 C 178.34375 403.859375 179.902344 402.167969 181.589844 400.480469 C 181.980469 400.089844 182.371094 399.703125 182.761719 399.3125 C 184.707031 397.234375 186.789062 395.285156 188.996094 393.464844 C 189.644531 392.945312 190.292969 392.425781 190.945312 391.777344 C 192.503906 390.476562 193.933594 389.179688 195.492188 387.878906 C 196.402344 387.230469 197.179688 386.582031 198.089844 385.800781 C 199.519531 384.761719 200.816406 383.59375 202.246094 382.554688 C 203.15625 381.90625 204.195312 381.125 205.105469 380.476562 C 206.402344 379.566406 207.832031 378.527344 209.261719 377.617188 C 210.300781 376.96875 211.339844 376.320312 212.378906 375.667969 C 213.808594 374.757812 215.105469 373.980469 216.535156 373.070312 C 217.574219 372.421875 218.746094 371.773438 219.785156 371.121094 C 221.210938 370.34375 222.640625 369.5625 223.941406 368.785156 C 225.109375 368.132812 226.277344 367.613281 227.316406 366.964844 C 228.746094 366.1875 230.175781 365.535156 231.605469 364.886719 C 232.773438 364.367188 233.945312 363.847656 235.113281 363.328125 C 236.542969 362.679688 238.101562 362.027344 239.53125 361.507812 C 240.699219 360.988281 241.996094 360.601562 243.167969 360.082031 C 244.726562 359.558594 246.15625 358.910156 247.714844 358.390625 C 249.011719 358 250.183594 357.480469 251.480469 357.09375 C 253.039062 356.574219 254.597656 356.183594 256.15625 355.664062 C 257.457031 355.273438 258.625 354.882812 259.925781 354.625 C 261.484375 354.234375 263.171875 353.84375 264.730469 353.453125 C 266.03125 353.195312 267.199219 352.804688 268.5 352.546875 C 270.1875 352.15625 271.875 351.894531 273.566406 351.636719 C 274.863281 351.375 276.035156 351.117188 277.332031 350.988281 C 279.152344 350.726562 280.839844 350.46875 282.660156 350.207031 C 283.828125 350.078125 284.996094 349.949219 286.164062 349.816406 C 288.113281 349.558594 290.191406 349.429688 292.140625 349.296875 C 293.179688 349.296875 294.089844 349.167969 295.128906 349.039062 C 298.117188 348.90625 301.234375 348.777344 304.351562 348.777344 C 382.6875 348.777344 448.808594 401.261719 469.59375 472.96875 L 564.167969 472.96875 C 541.5625 349.949219 433.871094 256.542969 304.222656 256.542969 C 174.574219 256.542969 39.992188 374.628906 39.992188 520.644531 C 39.992188 666.660156 158.335938 785.003906 304.351562 785.003906 C 450.367188 785.003906 541.691406 691.730469 564.296875 568.582031 Z M 493.496094 568.582031 "/></g></g></svg>